<svg width="343" height="56" viewBox="0 0 343 56" fill="none" xmlns="http://www.w3.org/2000/svg">
<path d="M82.6893 41.6767H65.9301C65.9301 41.1424 65.9095 40.6133 65.943 40.0867C65.9533 39.9266 66.0927 39.764 66.1986 39.6221C70.669 33.5174 75.1447 27.4152 79.6178 21.3105C79.721 21.1685 79.8191 21.0214 79.9611 20.8175H66.4257V19.0157H82.2944C82.2944 19.5578 82.315 20.0844 82.2815 20.611C82.2712 20.771 82.124 20.9285 82.0182 21.073C77.5554 27.1674 73.0876 33.2566 68.6222 39.351C68.5164 39.4956 68.4131 39.6401 68.2531 39.8621H82.6867V41.6767H82.6893Z" fill="#181818"/>
<path d="M99.1698 34.7411H86.0835C86.1764 35.8975 86.5171 36.9223 87.1934 37.8206C88.2413 39.2119 89.7125 39.8623 91.3799 40.0998C93.672 40.4276 95.8866 40.1566 97.9747 39.0931C98.0108 39.075 98.0521 39.0699 98.1528 39.0389C98.1528 39.581 98.1657 40.1024 98.1399 40.6238C98.1347 40.7193 97.9928 40.8484 97.887 40.8948C95.9485 41.7647 93.9146 42.0719 91.8032 41.899C90.4223 41.7854 89.1137 41.4266 87.9109 40.7245C86.1429 39.6946 85.0072 38.1793 84.5271 36.1943C83.9876 33.9564 84.1425 31.7649 85.2937 29.7437C86.8036 27.0876 89.1989 25.8899 92.2007 25.8641C94.1237 25.8486 95.8685 26.3933 97.2675 27.7846C98.447 28.9591 99.0329 30.42 99.1594 32.054C99.2265 32.9239 99.1723 33.8041 99.1723 34.7359L99.1698 34.7411ZM86.0654 33.0994H97.4378C97.5721 31.3829 97.1229 29.9141 95.8143 28.7964C94.1056 27.338 91.2535 27.1238 89.1602 28.2724C87.2708 29.3075 86.3545 30.975 86.0654 33.102V33.0994Z" fill="#181818"/>
<path d="M113.003 26.1168H119.182V27.7792H112.938V41.669H111.116V27.7972H108.07V26.1168H111.144C111.144 25.1979 111.098 24.3177 111.155 23.4452C111.281 21.517 112.038 19.9631 113.927 19.1732C114.9 18.7654 115.935 18.6389 116.967 18.768C117.917 18.8867 118.849 19.1397 119.789 19.3359C120.088 19.3978 120.227 19.5527 120.199 19.8882C120.165 20.2883 120.191 20.691 120.191 21.0705C119.409 20.8872 118.661 20.6317 117.897 20.5568C117.073 20.4768 116.219 20.4819 115.398 20.6007C114.015 20.7994 113.163 21.7055 113.021 23.1355C112.925 24.1009 113.003 25.0817 113.003 26.1194V26.1168Z" fill="#181818"/>
<path d="M103.227 19.0024H104.989V41.6686H103.227V19.0024Z" fill="#181818"/>
<path d="M23.7637 4C26.4391 7.67031 29.8743 11.8544 34.2053 16.1784H14.7617C18.9688 11.6745 21.8481 7.35245 23.7677 4H23.7657H23.7637Z" fill="#181818"/>
<path d="M0 28.0569C3.42322 26.3777 7.9202 23.7429 12.4332 19.7128C12.8311 19.3569 13.221 18.9971 13.5949 18.6393H30.983C30.983 18.6393 18.3898 36.629 11.4994 36.683C5.81468 36.7289 3.43322 30.1979 0 28.0549L0 28.0569Z" fill="#181818"/>
<path d="M24.8705 51.9998C22.773 49.1211 20.0716 45.8346 16.6504 42.4342H32.6388C29.2515 45.8846 26.7221 49.2151 24.8725 51.9998H24.8705Z" fill="#181818"/>
<path d="M35.1767 39.4638C34.9888 39.6317 34.8048 39.8016 34.6228 39.9696H15.9551C15.9551 39.9696 28.7562 21.746 35.7386 21.708C41.5653 21.678 43.9787 28.3649 47.4859 30.5539C43.9187 32.579 39.5757 35.4596 35.1747 39.4638H35.1767Z" fill="#181818"/>
<path d="M335.476 42.1371C333.783 42.1371 332.296 41.7861 331.016 41.084C329.736 40.3613 328.735 39.3805 328.012 38.1416C327.289 36.882 326.928 35.4469 326.928 33.8363C326.928 32.2257 327.268 30.8009 327.95 29.562C328.652 28.323 329.602 27.3525 330.799 26.6505C332.018 25.9278 333.38 25.5664 334.888 25.5664C336.416 25.5664 337.768 25.9174 338.945 26.6195C340.143 27.3009 341.083 28.2714 341.764 29.531C342.445 30.7699 342.786 32.205 342.786 33.8363C342.786 33.9395 342.776 34.0531 342.755 34.177C342.755 34.2802 342.755 34.3938 342.755 34.5177H328.6V32.8761H341.578L340.711 33.5265C340.711 32.3496 340.453 31.3068 339.937 30.3982C339.441 29.469 338.76 28.7463 337.892 28.2301C337.025 27.7139 336.024 27.4558 334.888 27.4558C333.773 27.4558 332.771 27.7139 331.883 28.2301C330.996 28.7463 330.304 29.469 329.808 30.3982C329.313 31.3274 329.065 32.3908 329.065 33.5885V33.9292C329.065 35.1681 329.333 36.2625 329.87 37.2124C330.428 38.1416 331.192 38.8746 332.162 39.4115C333.153 39.9277 334.279 40.1858 335.538 40.1858C336.529 40.1858 337.448 40.0103 338.295 39.6592C339.162 39.3082 339.906 38.7713 340.525 38.0486L341.764 39.4734C341.041 40.3407 340.133 41.0014 339.038 41.4557C337.965 41.91 336.777 42.1371 335.476 42.1371Z" fill="black"/>
<path d="M318.14 42.1371C316.529 42.1371 315.084 41.7861 313.804 41.084C312.544 40.3613 311.553 39.3805 310.83 38.1416C310.107 36.882 309.746 35.4469 309.746 33.8363C309.746 32.205 310.107 30.7699 310.83 29.531C311.553 28.2921 312.544 27.3216 313.804 26.6195C315.084 25.9174 316.529 25.5664 318.14 25.5664C319.523 25.5664 320.773 25.8348 321.888 26.3717C323.003 26.9086 323.88 27.7139 324.52 28.7876L322.879 29.9027C322.321 29.0767 321.629 28.4676 320.804 28.0752C319.978 27.6829 319.079 27.4868 318.109 27.4868C316.953 27.4868 315.91 27.7552 314.981 28.2921C314.051 28.8083 313.318 29.5413 312.781 30.4912C312.245 31.441 311.976 32.556 311.976 33.8363C311.976 35.1165 312.245 36.2315 312.781 37.1814C313.318 38.1312 314.051 38.8746 314.981 39.4115C315.91 39.9277 316.953 40.1858 318.109 40.1858C319.079 40.1858 319.978 39.9896 320.804 39.5973C321.629 39.205 322.321 38.6062 322.879 37.8008L324.52 38.9159C323.88 39.969 323.003 40.7743 321.888 41.3318C320.773 41.8687 319.523 42.1371 318.14 42.1371Z" fill="black"/>
<path d="M303.07 41.9822V25.7212H305.269V41.9822H303.07ZM304.185 22.1283C303.731 22.1283 303.349 21.9734 303.039 21.6637C302.729 21.354 302.574 20.9823 302.574 20.5487C302.574 20.115 302.729 19.7537 303.039 19.4646C303.349 19.1549 303.731 19 304.185 19C304.639 19 305.021 19.1445 305.331 19.4336C305.641 19.7227 305.795 20.0841 305.795 20.5177C305.795 20.972 305.641 21.354 305.331 21.6637C305.042 21.9734 304.66 22.1283 304.185 22.1283Z" fill="black"/>
<path d="M290.465 41.9822L283.248 25.7212H285.54L292.168 40.8052H291.084L297.805 25.7212H299.974L292.726 41.9822H290.465Z" fill="black"/>
<path d="M273.396 41.9822V25.7213H275.503V30.1505L275.286 29.3761C275.74 28.1372 276.504 27.1977 277.578 26.5576C278.652 25.8968 279.983 25.5664 281.573 25.5664V27.7036C281.491 27.7036 281.408 27.7036 281.326 27.7036C281.243 27.6829 281.16 27.6726 281.078 27.6726C279.364 27.6726 278.022 28.1991 277.051 29.2522C276.081 30.2847 275.596 31.7611 275.596 33.6814V41.9822H273.396Z" fill="black"/>
<path d="M261.611 42.1371C259.918 42.1371 258.431 41.7861 257.151 41.084C255.871 40.3613 254.869 39.3805 254.147 38.1416C253.424 36.882 253.062 35.4469 253.062 33.8363C253.062 32.2257 253.403 30.8009 254.085 29.562C254.787 28.323 255.737 27.3525 256.934 26.6505C258.152 25.9278 259.515 25.5664 261.023 25.5664C262.551 25.5664 263.903 25.9174 265.08 26.6195C266.278 27.3009 267.217 28.2714 267.899 29.531C268.58 30.7699 268.921 32.205 268.921 33.8363C268.921 33.9395 268.91 34.0531 268.89 34.177C268.89 34.2802 268.89 34.3938 268.89 34.5177H254.735V32.8761H267.713L266.846 33.5265C266.846 32.3496 266.587 31.3068 266.071 30.3982C265.576 29.469 264.894 28.7463 264.027 28.2301C263.16 27.7139 262.158 27.4558 261.023 27.4558C259.908 27.4558 258.906 27.7139 258.018 28.2301C257.13 28.7463 256.439 29.469 255.943 30.3982C255.447 31.3274 255.2 32.3908 255.2 33.5885V33.9292C255.2 35.1681 255.468 36.2625 256.005 37.2124C256.562 38.1416 257.326 38.8746 258.297 39.4115C259.288 39.9277 260.413 40.1858 261.673 40.1858C262.664 40.1858 263.583 40.0103 264.43 39.6592C265.297 39.3082 266.04 38.7713 266.66 38.0486L267.899 39.4734C267.176 40.3407 266.267 41.0014 265.173 41.4557C264.099 41.91 262.912 42.1371 261.611 42.1371Z" fill="black"/>
<path d="M242.09 42.1681C240.48 42.1681 238.931 41.91 237.444 41.3937C235.978 40.8569 234.842 40.1755 234.037 39.3495L234.935 37.584C235.699 38.3274 236.721 38.9572 238.002 39.4734C239.303 39.969 240.665 40.2168 242.09 40.2168C243.453 40.2168 244.558 40.0516 245.404 39.7212C246.272 39.3702 246.901 38.9056 247.294 38.3274C247.707 37.7492 247.913 37.1091 247.913 36.4071C247.913 35.5604 247.665 34.879 247.17 34.3628C246.695 33.8466 246.065 33.4439 245.28 33.1549C244.496 32.8451 243.628 32.5767 242.679 32.3496C241.729 32.1224 240.779 31.885 239.829 31.6372C238.879 31.3687 238.002 31.0177 237.196 30.5841C236.412 30.1505 235.772 29.5826 235.276 28.8805C234.801 28.1578 234.564 27.2183 234.564 26.062C234.564 24.9882 234.842 24.0074 235.4 23.1195C235.978 22.211 236.856 21.4883 238.033 20.9514C239.21 20.3939 240.717 20.1151 242.555 20.1151C243.773 20.1151 244.981 20.2906 246.179 20.6417C247.376 20.972 248.409 21.4366 249.276 22.0355L248.502 23.8629C247.572 23.2434 246.581 22.7891 245.528 22.5001C244.496 22.211 243.494 22.0664 242.524 22.0664C241.223 22.0664 240.149 22.2419 239.303 22.593C238.456 22.944 237.826 23.4189 237.413 24.0177C237.021 24.5959 236.825 25.2567 236.825 26C236.825 26.8466 237.062 27.528 237.537 28.0443C238.033 28.5605 238.673 28.9631 239.457 29.2522C240.263 29.5413 241.14 29.7994 242.09 30.0266C243.04 30.2537 243.98 30.5015 244.909 30.7699C245.859 31.0384 246.726 31.3894 247.51 31.823C248.316 32.236 248.956 32.7935 249.431 33.4956C249.926 34.1976 250.174 35.1165 250.174 36.2522C250.174 37.3053 249.885 38.2861 249.307 39.1946C248.729 40.0825 247.841 40.8053 246.643 41.3628C245.466 41.8996 243.949 42.1681 242.09 42.1681Z" fill="black"/>
<path d="M215.758 42.1371C214.064 42.1371 212.578 41.7861 211.297 41.084C210.017 40.3613 209.016 39.3805 208.293 38.1416C207.57 36.882 207.209 35.4469 207.209 33.8363C207.209 32.2257 207.55 30.8009 208.231 29.562C208.933 28.323 209.883 27.3525 211.081 26.6505C212.299 25.9278 213.662 25.5664 215.169 25.5664C216.697 25.5664 218.05 25.9174 219.227 26.6195C220.424 27.3009 221.364 28.2714 222.045 29.531C222.727 30.7699 223.067 32.205 223.067 33.8363C223.067 33.9395 223.057 34.0531 223.036 34.177C223.036 34.2802 223.036 34.3938 223.036 34.5177H208.882V32.8761H221.859L220.992 33.5265C220.992 32.3496 220.734 31.3068 220.218 30.3982C219.722 29.469 219.041 28.7463 218.174 28.2301C217.306 27.7139 216.305 27.4558 215.169 27.4558C214.054 27.4558 213.053 27.7139 212.165 28.2301C211.277 28.7463 210.585 29.469 210.089 30.3982C209.594 31.3274 209.346 32.3908 209.346 33.5885V33.9292C209.346 35.1681 209.615 36.2625 210.151 37.2124C210.709 38.1416 211.473 38.8746 212.443 39.4115C213.435 39.9277 214.56 40.1858 215.82 40.1858C216.811 40.1858 217.73 40.0103 218.576 39.6592C219.443 39.3082 220.187 38.7713 220.806 38.0486L222.045 39.4734C221.322 40.3407 220.414 41.0014 219.32 41.4557C218.246 41.91 217.058 42.1371 215.758 42.1371Z" fill="black"/>
<path d="M196.32 25.5664C197.642 25.5664 198.788 25.8245 199.758 26.3407C200.75 26.8363 201.514 27.6003 202.05 28.6328C202.608 29.6652 202.887 30.9661 202.887 32.5354V41.9822H200.688V32.7522C200.688 31.0384 200.275 29.7478 199.449 28.8805C198.643 27.9926 197.497 27.5487 196.011 27.5487C194.896 27.5487 193.925 27.7862 193.099 28.2611C192.294 28.7154 191.664 29.3864 191.21 30.2743C190.776 31.1416 190.559 32.1947 190.559 33.4336V41.9822H188.36V32.7522C188.36 31.0384 187.947 29.7478 187.121 28.8805C186.295 27.9926 185.139 27.5487 183.652 27.5487C182.558 27.5487 181.598 27.7862 180.772 28.2611C179.946 28.7154 179.306 29.3864 178.851 30.2743C178.418 31.1416 178.201 32.1947 178.201 33.4336V41.9822H176.002V25.7213H178.108V30.1195L177.767 29.3451C178.263 28.1682 179.058 27.2493 180.152 26.5885C181.267 25.9071 182.579 25.5664 184.086 25.5664C185.676 25.5664 187.028 25.9691 188.143 26.7744C189.259 27.559 189.981 28.7463 190.312 30.3363L189.444 29.9956C189.919 28.6741 190.756 27.6106 191.953 26.8053C193.171 25.9794 194.627 25.5664 196.32 25.5664Z" fill="black"/>
<path d="M167.922 41.9822V38.3893L167.829 37.8008V31.792C167.829 30.4086 167.437 29.3451 166.652 28.6018C165.888 27.8584 164.742 27.4868 163.214 27.4868C162.161 27.4868 161.16 27.6623 160.21 28.0133C159.26 28.3643 158.455 28.8289 157.794 29.4071L156.803 27.7655C157.629 27.0634 158.62 26.5266 159.776 26.1549C160.933 25.7626 162.151 25.5664 163.431 25.5664C165.537 25.5664 167.158 26.093 168.294 27.146C169.45 28.1785 170.028 29.7581 170.028 31.885V41.9822H167.922ZM162.316 42.1371C161.098 42.1371 160.034 41.9409 159.126 41.5486C158.238 41.1356 157.556 40.5781 157.082 39.8761C156.607 39.1533 156.369 38.3274 156.369 37.3982C156.369 36.5516 156.565 35.7876 156.958 35.1062C157.371 34.4041 158.031 33.8466 158.94 33.4336C159.869 33 161.108 32.7832 162.657 32.7832H168.263V34.4248H162.719C161.149 34.4248 160.055 34.7035 159.435 35.261C158.837 35.8186 158.537 36.5103 158.537 37.3362C158.537 38.2654 158.899 39.0088 159.621 39.5663C160.344 40.1238 161.356 40.4026 162.657 40.4026C163.896 40.4026 164.959 40.1238 165.847 39.5663C166.756 38.9882 167.416 38.1622 167.829 37.0885L168.325 38.6062C167.912 39.6799 167.189 40.5368 166.157 41.1769C165.145 41.817 163.865 42.1371 162.316 42.1371Z" fill="black"/>
<path d="M133 41.9821V20.3008H134.889L149.849 39.1325H148.858V20.3008H151.119V41.9821H149.23L134.301 23.1503H135.292V41.9821H133Z" fill="black"/>
</svg>
